<svg width="32" height="32" viewBox="0 0 32 32" fill="none" xmlns="http://www.w3.org/2000/svg">
<path d="M22.9866 30.3332H9.01324C5.27991 30.3332 2.90657 28.1065 2.69324 24.3865L1.99991 13.3865C1.89324 11.7198 2.46657 10.1198 3.61324 8.9065C4.74657 7.69317 6.34657 6.99984 7.99991 6.99984C8.42657 6.99984 8.83991 6.7465 9.03991 6.3465L9.99991 4.43984C10.7866 2.87984 12.7599 1.6665 14.4799 1.6665H17.5332C19.2532 1.6665 21.2132 2.87984 21.9999 4.4265L22.9599 6.37317C23.1599 6.7465 23.5599 6.99984 23.9999 6.99984C25.6532 6.99984 27.2532 7.69317 28.3866 8.9065C29.5332 10.1332 30.1066 11.7198 29.9999 13.3865L29.3066 24.3998C29.0666 28.1732 26.7599 30.3332 22.9866 30.3332ZM14.4799 3.6665C13.4932 3.6665 12.2399 4.43984 11.7866 5.33317L10.8266 7.25317C10.2666 8.33317 9.18657 8.99984 7.99991 8.99984C6.87991 8.99984 5.83991 9.45317 5.06657 10.2665C4.30657 11.0798 3.91991 12.1465 3.99991 13.2532L4.69324 24.2665C4.85324 26.9598 6.30657 28.3332 9.01324 28.3332H22.9866C25.6799 28.3332 27.1332 26.9598 27.3066 24.2665L27.9999 13.2532C28.0666 12.1465 27.6932 11.0798 26.9332 10.2665C26.1599 9.45317 25.1199 8.99984 23.9999 8.99984C22.8132 8.99984 21.7332 8.33317 21.1732 7.27984L20.1999 5.33317C19.7599 4.45317 18.5066 3.67984 17.5199 3.67984H14.4799V3.6665Z" fill="white"/>
<path d="M18 11.6665H14C13.4533 11.6665 13 11.2132 13 10.6665C13 10.1198 13.4533 9.6665 14 9.6665H18C18.5467 9.6665 19 10.1198 19 10.6665C19 11.2132 18.5467 11.6665 18 11.6665Z" fill="white"/>
<path d="M15.9998 25.0002C13.0532 25.0002 10.6665 22.6135 10.6665 19.6668C10.6665 16.7202 13.0532 14.3335 15.9998 14.3335C18.9465 14.3335 21.3332 16.7202 21.3332 19.6668C21.3332 22.6135 18.9465 25.0002 15.9998 25.0002ZM15.9998 16.3335C14.1598 16.3335 12.6665 17.8268 12.6665 19.6668C12.6665 21.5068 14.1598 23.0002 15.9998 23.0002C17.8398 23.0002 19.3332 21.5068 19.3332 19.6668C19.3332 17.8268 17.8398 16.3335 15.9998 16.3335Z" fill="white"/>
</svg>
