<svg width="57" height="56" viewBox="0 0 57 56" fill="none" xmlns="http://www.w3.org/2000/svg">
<rect x="0.5" width="56" height="56" rx="28" fill="#D6E4FF"/>
<path d="M39.833 25.5865H35.9797C32.8197 25.5865 30.2463 23.0132 30.2463 19.8532V15.9998C30.2463 15.2665 29.6463 14.6665 28.913 14.6665H23.2597C19.153 14.6665 15.833 17.3332 15.833 22.0932V33.9065C15.833 38.6665 19.153 41.3332 23.2597 41.3332H33.7397C37.8463 41.3332 41.1663 38.6665 41.1663 33.9065V26.9198C41.1663 26.1865 40.5663 25.5865 39.833 25.5865ZM27.873 30.0398C27.673 30.2398 27.4197 30.3332 27.1663 30.3332C26.913 30.3332 26.6597 30.2398 26.4597 30.0398L25.4997 29.0798V34.6665C25.4997 35.2132 25.0463 35.6665 24.4997 35.6665C23.953 35.6665 23.4997 35.2132 23.4997 34.6665V29.0798L22.5397 30.0398C22.153 30.4265 21.513 30.4265 21.1263 30.0398C20.7397 29.6532 20.7397 29.0132 21.1263 28.6265L23.793 25.9598C23.8863 25.8798 23.9797 25.8132 24.0863 25.7598C24.113 25.7465 24.153 25.7332 24.1797 25.7198C24.2597 25.6932 24.3397 25.6798 24.433 25.6665C24.473 25.6665 24.4997 25.6665 24.5397 25.6665C24.6463 25.6665 24.753 25.6932 24.8597 25.7332C24.873 25.7332 24.873 25.7332 24.8863 25.7332C24.993 25.7732 25.0997 25.8532 25.1797 25.9332C25.193 25.9465 25.2063 25.9465 25.2063 25.9598L27.873 28.6265C28.2597 29.0132 28.2597 29.6532 27.873 30.0398Z" fill="#3366FF"/>
<path d="M35.7399 23.7468C37.0066 23.7602 38.7666 23.7602 40.2732 23.7602C41.0332 23.7602 41.4332 22.8668 40.8999 22.3335C38.9799 20.4002 35.5399 16.9202 33.5666 14.9468C33.0199 14.4002 32.0732 14.7735 32.0732 15.5335V20.1868C32.0732 22.1335 33.7266 23.7468 35.7399 23.7468Z" fill="#3366FF"/>
</svg>
