<svg width="20" height="20" viewBox="0 0 20 20" fill="none" xmlns="http://www.w3.org/2000/svg">
<path d="M15 8.95841C14.6583 8.95841 14.375 8.67508 14.375 8.33341V6.66675C14.375 4.04175 13.6333 2.29175 10 2.29175C6.36667 2.29175 5.625 4.04175 5.625 6.66675V8.33341C5.625 8.67508 5.34167 8.95841 5 8.95841C4.65833 8.95841 4.375 8.67508 4.375 8.33341V6.66675C4.375 4.25008 4.95833 1.04175 10 1.04175C15.0417 1.04175 15.625 4.25008 15.625 6.66675V8.33341C15.625 8.67508 15.3417 8.95841 15 8.95841Z" fill="#292D32"/>
<path d="M9.99996 16.0417C8.50829 16.0417 7.29163 14.825 7.29163 13.3333C7.29163 11.8417 8.50829 10.625 9.99996 10.625C11.4916 10.625 12.7083 11.8417 12.7083 13.3333C12.7083 14.825 11.4916 16.0417 9.99996 16.0417ZM9.99996 11.875C9.19996 11.875 8.54163 12.5333 8.54163 13.3333C8.54163 14.1333 9.19996 14.7917 9.99996 14.7917C10.8 14.7917 11.4583 14.1333 11.4583 13.3333C11.4583 12.5333 10.8 11.875 9.99996 11.875Z" fill="#292D32"/>
<path d="M14.1666 18.9583H5.83329C2.15829 18.9583 1.04163 17.8416 1.04163 14.1666V12.4999C1.04163 8.82492 2.15829 7.70825 5.83329 7.70825H14.1666C17.8416 7.70825 18.9583 8.82492 18.9583 12.4999V14.1666C18.9583 17.8416 17.8416 18.9583 14.1666 18.9583ZM5.83329 8.95825C2.84996 8.95825 2.29163 9.52492 2.29163 12.4999V14.1666C2.29163 17.1416 2.84996 17.7083 5.83329 17.7083H14.1666C17.15 17.7083 17.7083 17.1416 17.7083 14.1666V12.4999C17.7083 9.52492 17.15 8.95825 14.1666 8.95825H5.83329Z" fill="#292D32"/>
</svg>
